{"title":"The.Killer.Inside.Me.2010.BRRip 480p.H264.FEEL-FREE","uid":5784210,"size":1248698112,"categoryP":"video","categoryS":"movies","magnet":"?xt=urn:btih:55ed6cc4737d5d48a829edde13efbee721041c7a&amp;dn=The.Killer.Inside.Me.2010.BRRip+480p.H264.FEEL-FREE&amp;tr=udp%3A%2F%2Ftracker.openbittorrent.com%3A80&amp;tr=udp%3A%2F%2Fopen.demonii.com%3A1337&amp;tr=udp%3A%2F%2Ftracker.coppersurfer.tk%3A6969&amp;tr=udp%3A%2F%2Fexodus.desync.com%3A6969","seeders":0,"leechers":0,"uploader":"hiest","files":-1,"time":1282537476,"description":"Genre:Crime | Drama | Thriller | Western \nLanguage:English\nIMDb:http://www.imdb.com/title/tt0954947/\nSource:BluRay.X264-QCF\n\n\nComplete name :The.Killer.Inside.Me.2010.BRRip 480p.H264.FEEL-FREE\nFormat : MPEG-4\nFormat profile : Base Media\nCodec ID : isom\nFile size : 1.16 GiB\nDuration : 1h 49mn\nOverall bit rate : 1 524 Kbps\nVideo #1\nID : 1\nFormat : MPEG-4 Visual\nFormat profile : Simple@L1\nFormat settings, BVOP : No\nFormat settings, QPel : No\nFormat settings, GMC : No warppoints\nFormat settings, Matrix : Default (H.263)\nCodec ID : 20\nDuration : 1h 49mn\nBit rate mode : Variable\nBit rate : 1 200 Kbps\nWidth : 720 pixels\nHeight : 304 pixels\nDisplay aspect ratio : 2.35:1\nFrame rate mode : Constant\nFrame rate : 24.390 fps\nResolution : 24 bits\nColorimetry : 4:2:0\nScan type : Progressive\nBits/(Pixel*Frame) : 0.225\nStream size : 938 MiB (79%)\n\nAudio #2\nID : 2\nFormat : AAC\nFormat/Info : Advanced Audio Codec\nFormat version : Version 4\nFormat profile : LC\nFormat settings, SBR : No\nCodec ID : 40\nDuration : 1h 49mn\nBit rate mode : Variable\nBit rate : 320 Kbps\nChannel(s) : 6 channels\nChannel positions : Front: L C R, Rear: L R, LFE\nSampling rate : 48.0 KHz\nResolution : 16 bits\nStream size : 249 MiB (21%)\n\nPlot:\nA West Texas deputy sheriff is slowly unmasked as a psychotic killer\n\n\n &lt;a href=&quot;\nhttp://thepiratebay.se/user/hiest&quot; rel=&quot;nofollow&quot; target=&quot;_NEW&quot;&gt;\nhttp://thepiratebay.se/user/hiest&lt;/a&gt;\n\n\n\nScreenshots:\n &lt;a href=&quot;\nhttp://www.starshare.ro/bitbucket/The.Killer.Inside.Me.2010.BRRip%20480p.H264.FEEL-FREE.mp4_thumbs_%5B2010.08.22_22.29.58%5D.jpg&quot; rel=&quot;nofollow&quot; target=&quot;_NEW&quot;&gt;\nhttp://www.starshare.ro/bitbucket/The.Killer.Inside.Me.2010.BRRip%20480p.H264.FEEL-FREE.mp4_thumbs_%5B2010.08.22_22.29.58%5D.jpg&lt;/a&gt;\n &lt;a href=&quot;\nhttp://www.starshare.ro/bitbucket/vlcsnap-2010-08-22-22h28m55s229.jpg&quot; rel=&quot;nofollow&quot; target=&quot;_NEW&quot;&gt;\nhttp://www.starshare.ro/bitbucket/vlcsnap-2010-08-22-22h28m55s229.jpg&lt;/a&gt;\n &lt;a href=&quot;\nhttp://www.starshare.ro/bitbucket/vlcsnap-2010-08-22-22h29m09s99.jpg&quot; rel=&quot;nofollow&quot; target=&quot;_NEW&quot;&gt;\nhttp://www.starshare.ro/bitbucket/vlcsnap-2010-08-22-22h29m09s99.jpg&lt;/a&gt;\n &lt;a href=&quot;\nhttp://www.starshare.ro/bitbucket/vlcsnap-2010-08-22-22h29m29s48.jpg&quot; rel=&quot;nofollow&quot; target=&quot;_NEW&quot;&gt;\nhttp://www.starshare.ro/bitbucket/vlcsnap-2010-08-22-22h29m29s48.jpg&lt;/a&gt;","torrent":{"xt":"urn:btih:55ed6cc4737d5d48a829edde13efbee721041c7a","amp;dn":"The.Killer.Inside.Me.2010.BRRip+480p.H264.FEEL-FREE","amp;tr":["udp%3A%2F%2Ftracker.openbittorrent.com%3A80","udp%3A%2F%2Fopen.demonii.com%3A1337","udp%3A%2F%2Ftracker.coppersurfer.tk%3A6969","udp%3A%2F%2Fexodus.desync.com%3A6969"],"infoHash":"55ed6cc4737d5d48a829edde13efbee721041c7a","infoHashBuffer":{"type":"Buffer","data":[85,237,108,196,115,125,93,72,168,41,237,222,19,239,190,231,33,4,28,122]},"announce":[],"urlList":[]}}